<?xml version="1.0" standalone="no"?>
<!DOCTYPE svg PUBLIC "-//W3C//DTD SVG 20010904//EN"
 "http://www.w3.org/TR/2001/REC-SVG-20010904/DTD/svg10.dtd">
<svg version="1.0" xmlns="http://www.w3.org/2000/svg"
 width="500.000000pt" height="500.000000pt" viewBox="0 0 500.000000 500.000000"
 preserveAspectRatio="xMidYMid meet">
<metadata>
Created by potrace 1.11, written by Peter Selinger 2001-2013
</metadata>
<g transform="translate(0.000000,500.000000) scale(0.100000,-0.100000)"
fill="#000000" stroke="none">
<path d="M1442 2565 l0 -1395 168 0 169 0 0 423 c0 232 1 442 1 467 0 38 7 52
38 86 20 22 69 76 107 119 94 106 151 169 205 227 l45 49 137 -203 c75 -112
190 -282 255 -378 65 -96 195 -287 287 -425 93 -137 180 -264 193 -281 12 -17
23 -34 23 -37 0 -4 8 -16 17 -27 16 -19 29 -20 220 -20 112 0 203 3 202 8 0 4
-26 44 -57 88 -31 45 -108 155 -171 245 -63 90 -131 187 -150 214 -19 28 -99
142 -178 255 -78 113 -147 212 -153 220 -6 8 -78 112 -160 230 -82 118 -166
239 -187 268 -21 29 -39 56 -41 61 -2 7 119 153 228 275 16 17 106 121 202
231 95 110 185 214 199 230 15 17 48 55 74 85 26 30 74 84 105 120 32 36 90
103 130 150 40 47 77 87 81 88 5 2 9 8 9 13 0 5 -87 9 -203 9 l-203 0 -195
-231 c-107 -127 -199 -236 -204 -243 -6 -6 -46 -54 -90 -106 -44 -52 -82 -97
-85 -100 -3 -3 -27 -32 -55 -65 -27 -33 -52 -62 -55 -65 -3 -3 -39 -45 -80
-95 -41 -49 -82 -99 -92 -110 -76 -90 -345 -416 -361 -437 -12 -16 -26 -28
-31 -28 -8 0 -10 223 -9 740 l1 740 -168 0 -168 0 0 -1395z"/>
</g>
</svg>
