<svg version="1" xmlns="http://www.w3.org/2000/svg" width="666.667" height="666.667" viewBox="0 0 500.000000 500.000000"><path d="M133.9 70.2c-.1.2-.2 78.7-.3 174.5l-.1 174.3h42v-56.8c-.1-31.2.1-57.7.5-58.8.3-1.2 4.1-6.1 8.5-11 10-10.9 8.5-9.2 18.5-20.4 4.7-5.2 10.1-11.3 12.1-13.5 2-2.2 5-5.5 6.8-7.4 3.1-3.6 3.6-3.6 5.5-.1.6 1 8.8 13.2 18.1 27 18.8 27.6 34.7 51 51.5 76 6.1 9.1 18.5 27.3 27.4 40.5l16.3 24 26.3.3 26.2.2-3.4-4.7c-1.9-2.7-5.5-7.7-8-11.3-5.7-8.4-87.8-126.2-97.5-140-4-5.8-7.8-11.2-8.3-12-.6-.8-5.8-8.2-11.5-16.4L254 219.7l4.8-5.6c2.5-3.1 4.9-5.8 5.2-6.1.3-.3 3.2-3.6 6.5-7.5 5.9-6.8 11-12.7 13-14.9.6-.6 5.3-6.1 10.5-12.1 5.2-6.1 9.7-11.2 10-11.5.3-.3 5-5.7 10.5-12 5.4-6.3 10.2-11.7 10.5-12 .4-.4 8.4-9.6 15-17.4 1.4-1.6 3.2-3.7 4-4.6.8-.9 4-4.5 7-8.1 3-3.5 5.7-6.6 6-6.9.3-.3 6.2-7 13-15 6.9-8 12.9-14.8 13.5-15.2.5-.4-10.8-.8-25.1-.8h-26.2l-3.8 4.7c-2.1 2.7-4.1 5-4.4 5.3-.3.3-7.5 8.8-16 19s-15.7 18.7-16 19c-.5.4-13.1 15.4-18.1 21.5-1.7 2.1-5.9 7-14 16.6-14 16.4-23.8 28-27.1 32-2 2.4-5 6-6.6 7.9-1.6 1.9-12.8 15.4-24.8 30-24.1 29.2-23.9 29-25.1 29-.4 0-.8-41.5-.8-92.3V70.5l-20.7-.3c-11.5-.1-20.9-.1-20.9 0z"/></svg>